# xmcd
#
# Track frame offsets:
#	150
#	8465
#	24580
#	38612
#	54737
#	71520
#	81477
#	99060
#	112910
#	126465
#	141377
#	152610
#
# Disc length: 2208 seconds
#
# Revision: 0
# Processed by: cddbd v1.4PL0 Copyright (c) Steve Scherf et al.
# Submitted via: EasyCDDAExtractor 4.6.0.1
#
DISCID=93089e0c
DTITLE=Jerry Lee Lewis - Great Balls Of Fire Live
DYEAR=1993
DGENRE=Country
TTITLE0=Great Balls of Fire
TTITLE1=She Even Woke Me Up To Say Goodbye
TTITLE2=Cold Cold Heart
TTITLE3=Don't Want To Be Lonely
TTITLE4=Me and Bobby McGee
TTITLE5=High School Confidential
TTITLE6=Georgia On My Mind
TTITLE7=What'd I Say
TTITLE8=Mona Lisa
TTITLE9=Would You Take Another Chance On Me
TTITLE10=Little Queenie
TTITLE11=Crazy Arms
EXTD=
EXTT0=
EXTT1=
EXTT2=
EXTT3=
EXTT4=
EXTT5=
EXTT6=
EXTT7=
EXTT8=
EXTT9=
EXTT10=
EXTT11=
PLAYORDER=
